<?xml version="1.0" encoding="utf-8"?>
<!-- Generator: Adobe Illustrator 19.0.0, SVG Export Plug-In . SVG Version: 6.00 Build 0)  -->
<svg version="1.1" id="Layer_1" xmlns="http://www.w3.org/2000/svg" xmlns:xlink="http://www.w3.org/1999/xlink" x="0px" y="0px"
	 viewBox="-279 81 400 400" style="enable-background:new -279 81 400 400;" xml:space="preserve">
<style type="text/css">
	.st0{opacity:0.15;fill:#292F33;enable-background:new    ;}
	.st1{fill:#FFFFFF;}
</style>
<g id="_x31_0_x2013_20_x25__Black_Tint">
	<rect x="-279" y="81" class="st0" width="400" height="400"/>
</g>
<path id="email-3-icon" class="st1" d="M-81.6,289.9L-201,191c-3-2.5-1.2-7.3,2.6-7.3H40.8c3.8,0,5.6,4.8,2.6,7.3l-119.7,99
	C-77.9,291.1-80.1,291.1-81.6,289.9z M-81.6,325.3l-122-101.1c-2.7-2.2-6.8-0.3-6.8,3.2v146.8c0,2.3,1.8,4.1,4.1,4.1H48.2
	c2.3,0,4.1-1.8,4.1-4.1V227.6c0-3.5-4.1-5.4-6.8-3.2l-122,100.8C-77.9,326.5-80.1,326.5-81.6,325.3z"/>
</svg>
