<?xml version="1.0" encoding="utf-8"?>
<!-- Generator: Adobe Illustrator 19.0.0, SVG Export Plug-In . SVG Version: 6.00 Build 0)  -->
<svg version="1.1" id="Layer_1" xmlns="http://www.w3.org/2000/svg" xmlns:xlink="http://www.w3.org/1999/xlink" x="0px" y="0px"
	 viewBox="-279 81 400 400" style="enable-background:new -279 81 400 400;" xml:space="preserve">
<style type="text/css">
	.st0{opacity:0.15;fill:#292F33;enable-background:new    ;}
	.st1{fill:#FFFFFF;}
</style>
<g id="_x31_0_x2013_20_x25__Black_Tint">
	<rect x="-279" y="81" class="st0" width="400" height="400"/>
</g>
<g>
	<path class="st1" d="M-70,137.2c0,6.2,0,12.5,0,18.5c-6.1,0-11.9,0-18,0c0-6,0-12.2,0-18.5C-82,137.2-76,137.2-70,137.2z"/>
	<path class="st1" d="M-43.1,352.7c-24.1,0-47.8,0-71.5,0c-0.8-4.9-1.3-9.9-2.4-14.6c-2.7-11.9-8.2-22.8-13.4-33.8
		c-5.4-11.4-11.3-22.6-15.6-34.4c-10.4-28.2-4.8-53.7,15.8-75.4c26.2-27.8,72.1-28.7,100.1-2.3c16.2,15.3,24,34.3,22.9,56.6
		c-0.5,11.5-4.5,22.1-9.3,32.4c-4.9,10.5-10.2,20.8-15.2,31.3C-37.7,325.1-42.8,338.2-43.1,352.7z"/>
	<path class="st1" d="M-53.5,406.7c-3,7.6-8,13.1-15.6,16.2c-13.3,5.3-28.3-0.7-34.4-13.9c-0.8-1.7-1.5-2.3-3.4-2.3
		c-4.6-0.1-8.1-4.2-8.1-9.1c0-4.8,3.7-8.8,8.4-8.8c18.3-0.1,36.7-0.1,55,0c4.7,0,8.4,3.9,8.5,8.7c0.1,5-3.4,9-8.2,9.3
		C-52,406.8-52.7,406.7-53.5,406.7z"/>
	<path class="st1" d="M-79.2,379.8c-8.8,0-17.6,0-26.4,0c-5.5,0-9.4-3.7-9.4-8.9c0-5.3,3.8-9,9.3-9c17.8,0,35.6,0,53.4,0
		c5.5,0,9.3,3.7,9.3,9.1c0,5.3-3.8,8.9-9.4,8.9C-61.4,379.8-70.3,379.8-79.2,379.8z"/>
	<path class="st1" d="M-6.2,192.5c5.3-3.1,10.6-6.1,16.1-9.3c3,5.3,6,10.3,9.1,15.7c-5.4,3.1-10.6,6.2-16,9.3
		C-0.1,202.9-3.1,197.8-6.2,192.5z"/>
	<path class="st1" d="M-131.6,172.1c-3.1-5.3-6.1-10.5-9.3-16.1c5.2-3,10.3-6,15.7-9.1c3.2,5.5,6.2,10.7,9.2,16
		C-121.1,166.1-126.2,169-131.6,172.1z"/>
	<path class="st1" d="M-167.9,183.2c5.5,3.2,10.8,6.2,16.1,9.3c-3,5.2-6,10.4-9.1,15.7c-5.2-3-10.4-6-16-9.2
		C-174,193.7-171,188.5-167.9,183.2z"/>
	<path class="st1" d="M-26.5,172.1c-5.3-3.1-10.3-6-15.7-9.1c3-5.2,6-10.4,9.2-16c5.3,3,10.4,6,15.7,9
		C-20.3,161.5-23.4,166.8-26.5,172.1z"/>
	<path class="st1" d="M-186.7,236.2c6.4,0,12.5,0,18.3,0c0,5.9,0,11.6,0,17.6c-5.8,0-12,0-18.3,0
		C-186.7,248-186.7,242.2-186.7,236.2z"/>
	<path class="st1" d="M10.3,253.8c0-5.9,0-11.6,0-17.6c5.8,0,12,0,18.3,0c0,5.8,0,11.6,0,17.6C22.5,253.8,16.3,253.8,10.3,253.8z"/>
	<path class="st1" d="M2.6,281.6c5.5,3.2,10.8,6.2,16.4,9.4c-3,5.2-5.9,10.3-9,15.7c-5-2.9-9.8-5.7-14.8-8.5
		C-2.3,292.7,0.1,287.2,2.6,281.6z"/>
	<path class="st1" d="M-160.7,281.7c2.5,5.7,4.9,11.1,7.4,16.7c-4.9,2.8-9.7,5.6-14.6,8.4c-3.1-5.3-6-10.4-9.1-15.7
		C-171.5,287.9-166.2,284.9-160.7,281.7z"/>
</g>
<rect x="178" y="434.7" class="st1" width="1.3" height="0.7"/>
</svg>
