<?xml version="1.0" encoding="utf-8"?>
<!-- Generator: Adobe Illustrator 19.0.0, SVG Export Plug-In . SVG Version: 6.00 Build 0)  -->
<svg version="1.1" id="Layer_1" xmlns="http://www.w3.org/2000/svg" xmlns:xlink="http://www.w3.org/1999/xlink" x="0px" y="0px"
	 viewBox="0 0 890.4 285.4" style="enable-background:new 0 0 890.4 285.4;" xml:space="preserve">
<style type="text/css">
	.st0{fill:#8C6124;}
	.st1{fill:#FFB042;}
</style>
<g id="XMLID_69_">
	<path id="XMLID_70_" class="st0" d="M8.3,264.9c0.4-2,1.1-3.8,1.9-5.6c0.8-1.7,1.7-3.7,2.7-5.9c1-2.2,2-4.8,3.1-7.8
		c1.1-3,2.2-6.7,3.3-11.2l6.4-26.2c1.5-6.3,3.1-12.8,4.7-19.4c1.6-6.6,3.5-14,5.7-22.3c1.7-6.7,3.8-13.6,6.3-20.9
		c2.5-7.3,5-14.8,7.7-22.5c2.7-7.7,5.4-15.7,8.1-23.9c2.7-8.2,5.2-16.6,7.4-25.4c0.1-0.3,0.2-0.8,0.2-1.3c0-0.9-0.3-1.4-0.8-1.6
		c-0.5-0.2-1.3-0.3-2.1-0.3c-2.7,0-5-0.4-6.8-1.2c-1.8-0.8-3.2-1.9-4.3-3.2c-1-1.3-1.8-2.8-2.2-4.5c-0.4-1.7-0.7-3.5-0.7-5.3
		c0-4.8,0.6-8.6,1.7-11.5c1.1-2.9,2.6-5.1,4.4-6.7c1.8-1.6,3.8-2.7,5.9-3.4c2.1-0.7,4.2-1.3,6.2-1.7c2-0.4,3.8-0.9,5.3-1.4
		c1.5-0.5,2.6-1.4,3.3-2.7c1.1-2.3,2.1-4.7,3-7.3c0.9-2.6,2.1-4.9,3.5-7.1c1.4-2.2,3.2-4,5.2-5.4C89.6,7.7,92.3,7,95.7,7
		c2.4,0,4.5,0.7,6.4,2c1.9,1.3,3.5,2.9,4.8,4.9c1.4,2,2.5,4.1,3.5,6.3c1,2.2,1.9,4.3,2.6,6.1c11.2,0.3,21,1,29.2,2
		c8.2,1,14.4,1.9,18.6,2.6c8.2,1.5,16.4,3.8,24.6,6.9c8.2,3.1,15.7,7,22.3,11.9c6.6,4.9,12,10.6,16.2,17.2
		c4.2,6.6,6.3,14.2,6.3,22.7c0,4.4-0.5,8.9-1.5,13.6l-1.1,5.7c-0.9,4.6-2.7,8.8-5.5,12.8c-2.8,3.9-5.9,7.5-9.4,10.6
		c-9.7,8.9-20.3,16.4-31.9,22.5c-11.6,6.1-23.6,11.2-36.2,15.3c-12.5,4.1-25.4,7.6-38.5,10.5c-13.1,2.8-26,5.5-38.8,8l-4.6,0.7
		c-2.5,0.3-4,1.3-4.4,2.8c-2.2,7.5-3.9,14.1-5.2,19.8c-1.3,5.7-2.4,11.1-3.5,16.3c-1.1,5.2-2.2,10.4-3.3,15.5
		c-1.1,5.2-2.5,10.9-4.1,17.3c-0.5,2.1-1.5,4.5-2.9,7.4c-1.4,2.8-3.1,5.5-5.1,8s-4.2,4.7-6.8,6.5c-2.6,1.8-5.3,2.7-8.1,2.7
		c-2,0-3.7-0.5-5.1-1.6c-1.4-1.1-2.6-2.5-3.5-4.2c-0.9-1.7-1.6-3.5-2.1-5.5c-0.5-2-0.7-3.8-0.7-5.6c0-0.7,0-1.3,0-1.9
		C8,266,8.1,265.5,8.3,264.9z M73.3,144c-0.2,0.8-0.5,1.7-0.9,2.9c-0.4,1.1-0.7,2.3-1.1,3.6c-0.3,1.3-0.6,2.4-0.8,3.4
		c-0.2,1-0.3,1.8-0.3,2.2c0,0.5,0.1,1,0.2,1.4c0.2,0.4,0.5,0.6,1.1,0.6c0.3,0,1.4-0.1,3.1-0.4c1.7-0.3,3.8-0.6,6.3-1.1
		c2.5-0.4,5.1-0.9,7.9-1.5c2.8-0.5,5.6-1.1,8.2-1.6c7.1-1.5,14.7-3.5,22.7-5.8c8.1-2.3,16.1-5,24.1-7.9c8-2.9,15.7-6.1,23-9.5
		c7.3-3.4,13.8-7,19.5-10.8c6-4,10.8-8.1,14.4-12.1c3.6-4,5.4-8.3,5.4-12.9c0-2.7-0.4-5.2-1.1-7.3c-0.7-2.1-1.5-4.1-2.4-5.8
		c-3.3-5.3-7.4-9.5-12.3-12.6c-4.9-3.1-10.3-5.3-16-6.9c-5.8-1.5-11.8-2.5-18.2-2.9c-6.3-0.4-12.5-0.7-18.7-0.7
		c-1.6,0-4.1,0.1-7.4,0.3c-3.3,0.2-6.8,0.5-10.5,0.8c-3.7,0.3-7,0.7-10.1,1.2c-3.1,0.5-5.2,1.1-6.3,1.7c-0.5,0.3-1,0.9-1.4,1.6
		c-0.4,0.8-0.7,1.4-0.9,2c-0.9,2.2-2.1,5.2-3.6,9.1c-1.5,3.9-3.2,8.2-4.9,13c-1.7,4.8-3.6,9.9-5.5,15.2c-1.9,5.3-3.7,10.6-5.5,15.6
		c-1.7,5.1-3.4,9.8-4.8,14.2C75.2,137.5,74.1,141.1,73.3,144z"/>
	<path id="XMLID_73_" class="st0" d="M226.5,209.4c0-4.7,1.3-8.7,3.8-11.9c2.5-3.3,5.8-5.5,10-6.5c1.2-2.4,3.1-5.6,5.6-9.7
		c2.5-4.1,5.6-8.5,9.3-13.3c3.7-4.8,7.9-9.6,12.7-14.5c4.7-4.9,10-9.3,15.7-13.3c5.7-4,11.9-7.2,18.5-9.7c6.6-2.5,13.6-3.8,21-3.8
		c6.3,0,11.8,0.8,16.5,2.3c4.7,1.5,8.6,3.7,11.6,6.4c3.1,2.7,5.3,6,6.9,9.7c1.5,3.8,2.3,7.8,2.3,12.2c0,3.7-0.5,7.3-1.5,10.6
		c-1.5,6.1-4.4,11.5-8.5,16c-4.1,4.6-9,8.6-14.6,12c-5.6,3.4-11.7,6.3-18.3,8.6c-6.6,2.3-13.2,4.2-19.8,5.7
		c-6.6,1.5-13,2.7-19.1,3.5c-6.1,0.8-11.4,1.4-15.9,1.9c-1,2-1.8,4.4-2.5,7.4c-0.7,3-1.1,5.9-1.1,8.8c0,6.3,2.5,11.2,7.5,14.7
		c5,3.5,11.9,5.2,20.8,5.2c5.1,0,10-0.6,14.7-1.7c4.7-1.1,9.1-2.6,13.3-4.4c4.2-1.8,8.2-3.8,11.9-5.9c3.7-2.1,7.1-4.2,10.1-6.3
		c3.9-2.6,7.7-4.8,11.2-6.6c3.5-1.8,6.7-2.7,9.4-2.7c2.7,0,4.5,0.7,5.2,2c0.8,1.4,1.1,2.8,1.1,4.3c0,0.9,0,1.7-0.1,2.5
		c-0.1,0.8-0.1,1.5-0.2,2c-0.5,2.8-1.6,5.7-3.3,8.5c-1.6,2.8-3.7,5.3-6.2,7.4c-11.3,8.9-23,15.3-34.9,19.1
		c-11.9,3.8-24.7,5.7-38.2,5.7c-2.6,0-5.7-0.2-9.2-0.5s-7.2-1-11-2c-3.8-1-7.6-2.4-11.3-4.3c-3.7-1.9-7-4.3-9.9-7.4
		c-2.9-3.1-5.2-6.8-7-11.3c-1.8-4.5-2.7-9.9-2.7-16.2c0-5.1,0.7-10.9,2.1-17.2c-1.4-0.2-2.8-1-4-2.2
		C227.1,213.7,226.5,211.8,226.5,209.4z M328.9,164.1c0.2-0.5,0.3-1,0.3-1.5c0-0.4,0-0.9,0-1.5c0-2.9-1.1-5.2-3.3-6.6
		c-2.2-1.5-4.8-2.2-7.9-2.2c-4.8,0-9.5,1.3-14.2,3.8c-4.6,2.5-9,5.6-13.1,9.4c-4.1,3.8-7.7,7.8-10.9,12.1c-3.2,4.3-5.6,8.2-7.4,11.7
		c7.9-0.7,15.1-1.7,21.6-3.2c6.5-1.5,12.2-3.3,17.1-5.6c4.9-2.2,8.8-4.7,11.8-7.5C326.1,170.2,328,167.3,328.9,164.1z"/>
	<path id="XMLID_76_" class="st0" d="M510.6,138.2c-3.8,0-7.9,0.9-12.3,2.7c-4.4,1.8-8.9,4.2-13.6,7.3c-4.7,3.1-9.5,6.5-14.3,10.4
		c-4.9,3.9-9.6,7.9-14.3,12c-2.4,2.1-4.7,4-6.9,5.6c-2.2,1.7-4.4,3-6.5,3.8c-1.5,2.5-3.1,5.8-4.8,9.9c-1.7,4.1-3.4,8.6-5,13.4
		c-1.6,4.9-3.2,9.8-4.7,14.9c-1.5,5.1-2.7,9.8-3.7,14.2c-0.5,2.3-1,4.5-1.3,6.7c-0.3,2.2-0.7,4.5-1.1,7c-0.4,2.5-1,5.1-1.6,7.9
		c-0.6,2.8-1.3,6-2.2,9.5c-0.5,2.1-1.4,3.7-2.6,5c-1.2,1.3-2.5,2.2-3.8,2.9c-1.3,0.7-2.6,1.1-3.8,1.2c-1.2,0.2-2.1,0.2-2.8,0.2
		c-4.1,0-7.5-1-10.1-2.9s-3.9-5.8-3.9-11.5c0-1.5,0.1-3.1,0.2-4.8c0.1-1.7,0.4-3.6,1-5.6c2.4-10.4,4.7-19.7,7-28
		c2.2-8.3,4.5-16,6.8-23.1c2.3-7.1,4.6-13.8,7-20c2.3-6.3,4.7-12.6,7.2-19c2.5-6.4,5-13,7.7-19.8c2.7-6.8,5.5-14.4,8.6-22.7
		c0.7-1.9,2.4-3.4,5.2-4.7c2.8-1.3,5.8-1.9,8.9-1.9c4.1,0,7.6,0.9,10.2,2.8c2.7,1.9,4,4.5,4,8c0,0.3-0.1,0.9-0.3,1.8
		c-0.2,0.9-0.5,1.8-1,2.8l-7.2,17c4.6-3.6,9.4-7.2,14.3-10.8c5-3.6,10.1-6.8,15.3-9.7c5.2-2.9,10.5-5.2,15.8-7
		c5.3-1.8,10.5-2.7,15.6-2.7c10.5,0,18.7,2.8,24.5,8.4c5.9,5.6,8.8,14.3,8.8,26.1c0,6.8-1.2,14.5-3.5,23.1
		c-2.3,8.6-5.3,17.9-8.8,27.7c-3.5,9.9-7.4,20.2-11.5,31.1c-4.1,10.9-7.9,21.9-11.4,33.1c-1,3.1-2,5.6-3,7.7c-1,2.1-2.3,3.7-3.7,5
		c-1.4,1.3-3.1,2.2-5,2.7c-1.9,0.5-4.2,0.8-7,0.8c-4.3,0-7.2-0.8-8.8-2.4c-1.6-1.6-2.5-4.1-2.5-7.6c0-3.1,0.5-6.8,1.4-11.2
		c0.9-4.4,2.2-9.3,3.9-14.6c1.7-5.3,3.7-10.9,5.9-16.9c2.2-6,4.7-12.1,7.3-18.3c2.1-5,4.1-10,6.1-15.1c2-5,3.8-9.9,5.4-14.6
		c1.6-4.7,2.9-9.2,3.8-13.4c1-4.3,1.5-8.2,1.5-11.8c0-3.4-0.7-6.4-2.2-8.9C517.4,139.5,514.6,138.2,510.6,138.2z"/>
	<path id="XMLID_78_" class="st0" d="M580,208.6c2.1-8.4,5.2-17.2,9.2-26.3c4.1-9.2,9-18,14.8-26.6c5.8-8.6,12.4-16.5,19.7-23.7
		c7.4-7.3,15.4-13.2,24.1-17.8c2.8-1.5,5.9-2.7,9.3-3.4c3.4-0.8,6.8-1.1,10.3-1.1c3.6,0,7,0.3,10.1,1c3.1,0.7,5.8,1.7,8,3.3
		c2.2,1.5,4,3.5,5.3,5.9c1.3,2.4,2,5.3,2,8.8c0,2.6-0.4,5.3-1.1,7.9c-0.8,2.7-1.9,5.1-3.4,7.2c-1.5,2.1-3.4,3.8-5.7,5.2
		c-2.3,1.3-5,2-8,2c-2.4,0-4.6-0.4-6.6-1.3c-2-0.9-4-1.9-5.8-2.9c-1-0.7-1.9-1.2-2.8-1.7c-0.9-0.5-1.9-1-3.1-1.4
		c-4.4,2-8.5,4.6-12.4,7.8c-3.9,3.2-7.5,6.8-10.8,10.7c-3.3,3.9-6.4,8.1-9.2,12.6c-2.8,4.5-5.3,8.9-7.5,13.4
		c-2.2,4.5-4.1,8.9-5.7,13.2c-1.6,4.3-2.9,8.3-3.8,11.9c-0.8,2.6-1.4,5.6-2,8.9c-0.6,3.3-0.9,6.6-0.9,9.7c0,2.2,0.2,4.3,0.6,6.2
		c0.4,2,1.1,3.7,2,5.2c1,1.5,2.3,2.7,3.9,3.6c1.6,0.9,3.7,1.3,6.1,1.3c3.8,0,7.6-0.5,11.4-1.5c3.8-1,7.4-2.2,11-3.8
		c3.6-1.5,7.1-3.3,10.6-5.3c3.4-2,6.8-4.1,10.1-6.1c2.1-1.3,4.1-2.7,6.2-4.1c2.1-1.4,4-2.7,5.9-3.8c1.9-1.1,3.6-2,5.2-2.7
		c1.6-0.7,3-1.1,4.2-1.1c1.6,0,3.2,0.4,4.6,1.2c1.4,0.8,2.1,2.2,2.1,4.2c0,1.4-0.3,3-1,4.7c-1.5,4.3-3.6,8.1-6.2,11.5
		c-2.6,3.4-5.5,6.4-8.8,9.1c-3.2,2.7-6.7,5-10.3,7.1c-3.7,2.1-7.3,4-10.9,5.7c-6.8,3.6-13.6,6.3-20.5,8.1
		c-6.9,1.8-12.7,2.7-17.4,2.7c-1.5,0-3.3-0.2-5.4-0.5c-2.1-0.3-3.9-0.8-5.4-1.5c-8.8-3.8-15.3-8.9-19.3-15.4
		c-4-6.4-6.1-14.1-6.1-22.9c0-3.8,0.3-7.8,0.9-12C577.8,217.6,578.7,213.2,580,208.6z"/>
	<path id="XMLID_80_" class="st0" d="M721.5,242.7c1.6-6.3,3.6-13.7,5.9-22.1c2.3-8.4,4.7-17.3,7.3-26.7c2.6-9.4,5.2-19,7.8-28.8
		c2.6-9.8,5.1-19.4,7.4-28.6c0.1-0.4,0.5-1.2,1.1-2.2c0.7-1,1.6-2.1,2.8-3.1c1.2-1,2.7-1.9,4.6-2.7c1.9-0.8,4-1.1,6.5-1.1
		c1.9,0,3.7,0.2,5.4,0.6c1.7,0.4,3.3,1,4.7,1.7c1.4,0.8,2.5,1.8,3.3,3c0.8,1.3,1.2,2.7,1.2,4.3c0,0.3,0,0.7,0,1.1
		c0,0.4-0.1,0.7-0.2,1.1l-4.6,17.3c-5.1,19.4-10.3,38.9-15.6,58.4c-5.3,19.5-10.4,39.1-15.5,58.8c-0.2,0.7-0.5,1.5-1,2.5
		c-0.4,1-1,2-1.8,2.9c-0.8,1-1.7,1.8-2.8,2.5c-1.1,0.7-2.4,1-3.9,1c-2.8,0-5.3-0.6-7.5-1.7c-2.2-1.1-4-2.6-5.6-4.3
		c-1.5-1.7-2.7-3.7-3.4-5.7c-0.8-2.1-1.1-4-1.1-5.9c0-0.5,0-1,0-1.5c0-0.4,0.1-0.9,0.3-1.5L721.5,242.7z M764.2,73.3
		c0.5-2.3,1.5-5.1,2.9-8.3c1.4-3.3,3.9-6.2,7.5-8.8c1.7-1,3.9-1.9,6.4-2.7c2.5-0.8,4.3-1.2,5.4-1.2c1.1,0,2.2,0.4,3.4,1.1
		c1.1,0.8,2.2,1.6,3,2.5c1.1,1.1,2.1,2.3,3.1,3.6c2.7,0.2,4.5,1.2,5.3,2.9c0.8,1.7,1.2,3.8,1.2,6.2c0,1.7-0.2,3.3-0.5,4.7
		c-0.3,1.4-0.6,2.6-0.8,3.4c-0.7,2.3-1.9,4.4-3.8,6.3c-1.9,1.9-4,3.5-6.4,4.9c-2.4,1.4-4.9,2.4-7.5,3.2c-2.6,0.8-4.9,1.1-6.9,1.1
		c-2.5,0-4.4-0.4-5.8-1.3c-1.4-0.9-3.1-2.7-5.2-5.6c-1.2-1.6-1.9-2.9-2-3.8c-0.2-0.9-0.2-1.7-0.2-2.4c0-1.2,0.1-2.3,0.2-3.2
		C763.8,75.1,764,74.2,764.2,73.3z"/>
	<path id="XMLID_83_" class="st0" d="M856.5,48.2c0.5-4.4,1.4-8.4,2.6-12.1c1.2-3.7,2.8-6.8,4.8-9.2c2-2.5,4.6-3.7,7.8-3.7
		c1.7,0,3.7,0.3,5.8,1c2.1,0.7,4.1,1.6,6.1,2.7c1.9,1.1,3.5,2.5,4.8,4.2c1.3,1.6,2,3.4,2,5.4c0,0.9-0.2,1.9-0.5,3s-0.6,2.3-0.8,3.4
		l-40.9,164c-1.6,6.5-3,12.8-4.1,18.7c-1.1,5.9-1.9,10.8-2.5,14.6v3.9c0,3.3-0.2,6.8-0.7,10.7c-0.4,3.9-1.3,7.5-2.5,10.8
		c-1.2,3.3-2.9,6.1-5,8.3c-2.1,2.2-4.9,3.4-8.3,3.4c-2.9,0-5.5-0.6-7.7-1.9c-2.2-1.3-4-2.9-5.4-4.8c-1.4-2-2.5-4.1-3.1-6.3
		c-0.7-2.2-1-4.3-1-6.3c0-1.7,0.2-3.9,0.5-6.5c0.3-2.6,0.7-5.2,1.2-8c0.5-2.8,1-5.6,1.6-8.3c0.5-2.8,1.1-5.2,1.6-7.3l42.2-167.6
		C855.5,56.6,856,52.6,856.5,48.2z"/>
</g>
<g id="XMLID_53_">
	<path id="XMLID_54_" class="st1" d="M0.3,257.9c0.4-2,1.1-3.8,1.9-5.6c0.8-1.7,1.7-3.7,2.7-5.9c1-2.2,2-4.8,3.1-7.8
		c1.1-3,2.2-6.7,3.3-11.2l6.4-26.2c1.5-6.3,3.1-12.8,4.7-19.4c1.6-6.6,3.5-14,5.7-22.3c1.7-6.7,3.8-13.6,6.3-20.9
		c2.5-7.3,5-14.8,7.7-22.5c2.7-7.7,5.4-15.7,8.1-23.9c2.7-8.2,5.2-16.6,7.4-25.4c0.1-0.3,0.2-0.8,0.2-1.3c0-0.9-0.3-1.4-0.8-1.6
		c-0.5-0.2-1.3-0.3-2.1-0.3c-2.7,0-5-0.4-6.8-1.2c-1.8-0.8-3.2-1.9-4.3-3.2c-1-1.3-1.8-2.8-2.2-4.5c-0.4-1.7-0.7-3.5-0.7-5.3
		c0-4.8,0.6-8.6,1.7-11.5c1.1-2.9,2.6-5.1,4.4-6.7c1.8-1.6,3.8-2.7,5.9-3.4c2.1-0.7,4.2-1.3,6.2-1.7c2-0.4,3.8-0.9,5.3-1.4
		c1.5-0.5,2.6-1.4,3.3-2.7c1.1-2.3,2.1-4.7,3-7.3c0.9-2.6,2.1-4.9,3.5-7.1c1.4-2.2,3.2-4,5.2-5.4C81.6,0.7,84.3,0,87.7,0
		c2.4,0,4.5,0.7,6.4,2c1.9,1.3,3.5,2.9,4.8,4.9c1.4,2,2.5,4.1,3.5,6.3c1,2.2,1.9,4.3,2.6,6.1c11.2,0.3,21,1,29.2,2
		c8.2,1,14.4,1.9,18.6,2.6c8.2,1.5,16.4,3.8,24.6,6.9c8.2,3.1,15.7,7,22.3,11.9c6.6,4.9,12,10.6,16.2,17.2
		c4.2,6.6,6.3,14.2,6.3,22.7c0,4.4-0.5,8.9-1.5,13.6l-1.1,5.7c-0.9,4.6-2.7,8.8-5.5,12.8c-2.8,3.9-5.9,7.5-9.4,10.6
		c-9.7,8.9-20.3,16.4-31.9,22.5c-11.6,6.1-23.6,11.2-36.2,15.3c-12.5,4.1-25.4,7.6-38.5,10.5c-13.1,2.8-26,5.5-38.8,8l-4.6,0.7
		c-2.5,0.3-4,1.3-4.4,2.8c-2.2,7.5-3.9,14.1-5.2,19.8c-1.3,5.7-2.4,11.1-3.5,16.3c-1.1,5.2-2.2,10.4-3.3,15.5
		c-1.1,5.2-2.5,10.9-4.1,17.3c-0.5,2.1-1.5,4.5-2.9,7.4c-1.4,2.8-3.1,5.5-5.1,8s-4.2,4.7-6.8,6.5c-2.6,1.8-5.3,2.7-8.1,2.7
		c-2,0-3.7-0.5-5.1-1.6c-1.4-1.1-2.6-2.5-3.5-4.2c-0.9-1.7-1.6-3.5-2.1-5.5c-0.5-2-0.7-3.8-0.7-5.6c0-0.7,0-1.3,0-1.9
		C0,259,0.1,258.5,0.3,257.9z M65.3,137c-0.2,0.8-0.5,1.7-0.9,2.9c-0.4,1.1-0.7,2.3-1.1,3.6c-0.3,1.3-0.6,2.4-0.8,3.4
		c-0.2,1-0.3,1.8-0.3,2.2c0,0.5,0.1,1,0.2,1.4c0.2,0.4,0.5,0.6,1.1,0.6c0.3,0,1.4-0.1,3.1-0.4c1.7-0.3,3.8-0.6,6.3-1.1
		c2.5-0.4,5.1-0.9,7.9-1.5c2.8-0.5,5.6-1.1,8.2-1.6c7.1-1.5,14.7-3.5,22.7-5.8c8.1-2.3,16.1-5,24.1-7.9c8-2.9,15.7-6.1,23-9.5
		c7.3-3.4,13.8-7,19.5-10.8c6-4,10.8-8.1,14.4-12.1c3.6-4,5.4-8.3,5.4-12.9c0-2.7-0.4-5.2-1.1-7.3c-0.7-2.1-1.5-4.1-2.4-5.8
		c-3.3-5.3-7.4-9.5-12.3-12.6c-4.9-3.1-10.3-5.3-16-6.9c-5.8-1.5-11.8-2.5-18.2-2.9c-6.3-0.4-12.5-0.7-18.7-0.7
		c-1.6,0-4.1,0.1-7.4,0.3c-3.3,0.2-6.8,0.5-10.5,0.8c-3.7,0.3-7,0.7-10.1,1.2c-3.1,0.5-5.2,1.1-6.3,1.7c-0.5,0.3-1,0.9-1.4,1.6
		c-0.4,0.8-0.7,1.4-0.9,2c-0.9,2.2-2.1,5.2-3.6,9.1c-1.5,3.9-3.2,8.2-4.9,13c-1.7,4.8-3.6,9.9-5.5,15.2c-1.9,5.3-3.7,10.6-5.5,15.6
		c-1.7,5.1-3.4,9.8-4.8,14.2C67.2,130.5,66.1,134.1,65.3,137z"/>
	<path id="XMLID_57_" class="st1" d="M218.5,202.4c0-4.7,1.3-8.7,3.8-11.9c2.5-3.3,5.8-5.5,10-6.5c1.2-2.4,3.1-5.6,5.6-9.7
		c2.5-4.1,5.6-8.5,9.3-13.3c3.7-4.8,7.9-9.6,12.7-14.5c4.7-4.9,10-9.3,15.7-13.3c5.7-4,11.9-7.2,18.5-9.7c6.6-2.5,13.6-3.8,21-3.8
		c6.3,0,11.8,0.8,16.5,2.3c4.7,1.5,8.6,3.7,11.6,6.4c3.1,2.7,5.3,6,6.9,9.7c1.5,3.8,2.3,7.8,2.3,12.2c0,3.7-0.5,7.3-1.5,10.6
		c-1.5,6.1-4.4,11.5-8.5,16c-4.1,4.6-9,8.6-14.6,12c-5.6,3.4-11.7,6.3-18.3,8.6c-6.6,2.3-13.2,4.2-19.8,5.7
		c-6.6,1.5-13,2.7-19.1,3.5c-6.1,0.8-11.4,1.4-15.9,1.9c-1,2-1.8,4.4-2.5,7.4c-0.7,3-1.1,5.9-1.1,8.8c0,6.3,2.5,11.2,7.5,14.7
		c5,3.5,11.9,5.2,20.8,5.2c5.1,0,10-0.6,14.7-1.7c4.7-1.1,9.1-2.6,13.3-4.4c4.2-1.8,8.2-3.8,11.9-5.9c3.7-2.1,7.1-4.2,10.1-6.3
		c3.9-2.6,7.7-4.8,11.2-6.6c3.5-1.8,6.7-2.7,9.4-2.7c2.7,0,4.5,0.7,5.2,2c0.8,1.4,1.1,2.8,1.1,4.3c0,0.9,0,1.7-0.1,2.5
		c-0.1,0.8-0.1,1.5-0.2,2c-0.5,2.8-1.6,5.7-3.3,8.5c-1.6,2.8-3.7,5.3-6.2,7.4c-11.3,8.9-23,15.3-34.9,19.1
		c-11.9,3.8-24.7,5.7-38.2,5.7c-2.6,0-5.7-0.2-9.2-0.5s-7.2-1-11-2c-3.8-1-7.6-2.4-11.3-4.3c-3.7-1.9-7-4.3-9.9-7.4
		c-2.9-3.1-5.2-6.8-7-11.3c-1.8-4.5-2.7-9.9-2.7-16.2c0-5.1,0.7-10.9,2.1-17.2c-1.4-0.2-2.8-1-4-2.2
		C219.1,206.7,218.5,204.8,218.5,202.4z M320.9,157.1c0.2-0.5,0.3-1,0.3-1.5c0-0.4,0-0.9,0-1.5c0-2.9-1.1-5.2-3.3-6.6
		c-2.2-1.5-4.8-2.2-7.9-2.2c-4.8,0-9.5,1.3-14.2,3.8c-4.6,2.5-9,5.6-13.1,9.4c-4.1,3.8-7.7,7.8-10.9,12.1c-3.2,4.3-5.6,8.2-7.4,11.7
		c7.9-0.7,15.1-1.7,21.6-3.2c6.5-1.5,12.2-3.3,17.1-5.6c4.9-2.2,8.8-4.7,11.8-7.5C318.1,163.2,320,160.3,320.9,157.1z"/>
	<path id="XMLID_60_" class="st1" d="M502.6,131.2c-3.8,0-7.9,0.9-12.3,2.7c-4.4,1.8-8.9,4.2-13.6,7.3c-4.7,3.1-9.5,6.5-14.3,10.4
		c-4.9,3.9-9.6,7.9-14.3,12c-2.4,2.1-4.7,4-6.9,5.6c-2.2,1.7-4.4,3-6.5,3.8c-1.5,2.5-3.1,5.8-4.8,9.9c-1.7,4.1-3.4,8.6-5,13.4
		c-1.6,4.9-3.2,9.8-4.7,14.9c-1.5,5.1-2.7,9.8-3.7,14.2c-0.5,2.3-1,4.5-1.3,6.7c-0.3,2.2-0.7,4.5-1.1,7c-0.4,2.5-1,5.1-1.6,7.9
		c-0.6,2.8-1.3,6-2.2,9.5c-0.5,2.1-1.4,3.7-2.6,5c-1.2,1.3-2.5,2.2-3.8,2.9c-1.3,0.7-2.6,1.1-3.8,1.2c-1.2,0.2-2.1,0.2-2.8,0.2
		c-4.1,0-7.5-1-10.1-2.9s-3.9-5.8-3.9-11.5c0-1.5,0.1-3.1,0.2-4.8c0.1-1.7,0.4-3.6,1-5.6c2.4-10.4,4.7-19.7,7-28
		c2.2-8.3,4.5-16,6.8-23.1c2.3-7.1,4.6-13.8,7-20c2.3-6.3,4.7-12.6,7.2-19c2.5-6.4,5-13,7.7-19.8c2.7-6.8,5.5-14.4,8.6-22.7
		c0.7-1.9,2.4-3.4,5.2-4.7c2.8-1.3,5.8-1.9,8.9-1.9c4.1,0,7.6,0.9,10.2,2.8c2.7,1.9,4,4.5,4,8c0,0.3-0.1,0.9-0.3,1.8
		c-0.2,0.9-0.5,1.8-1,2.8l-7.2,17c4.6-3.6,9.4-7.2,14.3-10.8c5-3.6,10.1-6.8,15.3-9.7c5.2-2.9,10.5-5.2,15.8-7
		c5.3-1.8,10.5-2.7,15.6-2.7c10.5,0,18.7,2.8,24.5,8.4c5.9,5.6,8.8,14.3,8.8,26.1c0,6.8-1.2,14.5-3.5,23.1
		c-2.3,8.6-5.3,17.9-8.8,27.7c-3.5,9.9-7.4,20.2-11.5,31.1c-4.1,10.9-7.9,21.9-11.4,33.1c-1,3.1-2,5.6-3,7.7c-1,2.1-2.3,3.7-3.7,5
		c-1.4,1.3-3.1,2.2-5,2.7c-1.9,0.5-4.2,0.8-7,0.8c-4.3,0-7.2-0.8-8.8-2.4c-1.6-1.6-2.5-4.1-2.5-7.6c0-3.1,0.5-6.8,1.4-11.2
		c0.9-4.4,2.2-9.3,3.9-14.6c1.7-5.3,3.7-10.9,5.9-16.9c2.2-6,4.7-12.1,7.3-18.3c2.1-5,4.1-10,6.1-15.1c2-5,3.8-9.9,5.4-14.6
		c1.6-4.7,2.9-9.2,3.8-13.4c1-4.3,1.5-8.2,1.5-11.8c0-3.4-0.7-6.4-2.2-8.9C509.4,132.5,506.6,131.2,502.6,131.2z"/>
	<path id="XMLID_62_" class="st1" d="M572,201.6c2.1-8.4,5.2-17.2,9.2-26.3c4.1-9.2,9-18,14.8-26.6c5.8-8.6,12.4-16.5,19.7-23.7
		c7.4-7.3,15.4-13.2,24.1-17.8c2.8-1.5,5.9-2.7,9.3-3.4c3.4-0.8,6.8-1.1,10.3-1.1c3.6,0,7,0.3,10.1,1c3.1,0.7,5.8,1.7,8,3.3
		c2.2,1.5,4,3.5,5.3,5.9c1.3,2.4,2,5.3,2,8.8c0,2.6-0.4,5.3-1.1,7.9c-0.8,2.7-1.9,5.1-3.4,7.2c-1.5,2.1-3.4,3.8-5.7,5.2
		c-2.3,1.3-5,2-8,2c-2.4,0-4.6-0.4-6.6-1.3c-2-0.9-4-1.9-5.8-2.9c-1-0.7-1.9-1.2-2.8-1.7c-0.9-0.5-1.9-1-3.1-1.4
		c-4.4,2-8.5,4.6-12.4,7.8c-3.9,3.2-7.5,6.8-10.8,10.7c-3.3,3.9-6.4,8.1-9.2,12.6c-2.8,4.5-5.3,8.9-7.5,13.4
		c-2.2,4.5-4.1,8.9-5.7,13.2c-1.6,4.3-2.9,8.3-3.8,11.9c-0.8,2.6-1.4,5.6-2,8.9c-0.6,3.3-0.9,6.6-0.9,9.7c0,2.2,0.2,4.3,0.6,6.2
		c0.4,2,1.1,3.7,2,5.2c1,1.5,2.3,2.7,3.9,3.6c1.6,0.9,3.7,1.3,6.1,1.3c3.8,0,7.6-0.5,11.4-1.5c3.8-1,7.4-2.2,11-3.8
		c3.6-1.5,7.1-3.3,10.6-5.3c3.4-2,6.8-4.1,10.1-6.1c2.1-1.3,4.1-2.7,6.2-4.1c2.1-1.4,4-2.7,5.9-3.8c1.9-1.1,3.6-2,5.2-2.7
		c1.6-0.7,3-1.1,4.2-1.1c1.6,0,3.2,0.4,4.6,1.2c1.4,0.8,2.1,2.2,2.1,4.2c0,1.4-0.3,3-1,4.7c-1.5,4.3-3.6,8.1-6.2,11.5
		c-2.6,3.4-5.5,6.4-8.8,9.1c-3.2,2.7-6.7,5-10.3,7.1c-3.7,2.1-7.3,4-10.9,5.7c-6.8,3.6-13.6,6.3-20.5,8.1
		c-6.9,1.8-12.7,2.7-17.4,2.7c-1.5,0-3.3-0.2-5.4-0.5c-2.1-0.3-3.9-0.8-5.4-1.5c-8.8-3.8-15.3-8.9-19.3-15.4
		c-4-6.4-6.1-14.1-6.1-22.9c0-3.8,0.3-7.8,0.9-12C569.8,210.6,570.7,206.2,572,201.6z"/>
	<path id="XMLID_64_" class="st1" d="M713.5,235.7c1.6-6.3,3.6-13.7,5.9-22.1c2.3-8.4,4.7-17.3,7.3-26.7c2.6-9.4,5.2-19,7.8-28.8
		c2.6-9.8,5.1-19.4,7.4-28.6c0.1-0.4,0.5-1.2,1.1-2.2c0.7-1,1.6-2.1,2.8-3.1c1.2-1,2.7-1.9,4.6-2.7c1.9-0.8,4-1.1,6.5-1.1
		c1.9,0,3.7,0.2,5.4,0.6c1.7,0.4,3.3,1,4.7,1.7c1.4,0.8,2.5,1.8,3.3,3c0.8,1.3,1.2,2.7,1.2,4.3c0,0.3,0,0.7,0,1.1
		c0,0.4-0.1,0.7-0.2,1.1l-4.6,17.3c-5.1,19.4-10.3,38.9-15.6,58.4c-5.3,19.5-10.4,39.1-15.5,58.8c-0.2,0.7-0.5,1.5-1,2.5
		c-0.4,1-1,2-1.8,2.9c-0.8,1-1.7,1.8-2.8,2.5c-1.1,0.7-2.4,1-3.9,1c-2.8,0-5.3-0.6-7.5-1.7c-2.2-1.1-4-2.6-5.6-4.3
		c-1.5-1.7-2.7-3.7-3.4-5.7c-0.8-2.1-1.1-4-1.1-5.9c0-0.5,0-1,0-1.5c0-0.4,0.1-0.9,0.3-1.5L713.5,235.7z M756.2,66.3
		c0.5-2.3,1.5-5.1,2.9-8.3c1.4-3.3,3.9-6.2,7.5-8.8c1.7-1,3.9-1.9,6.4-2.7c2.5-0.8,4.3-1.2,5.4-1.2c1.1,0,2.2,0.4,3.4,1.1
		c1.1,0.8,2.2,1.6,3,2.5c1.1,1.1,2.1,2.3,3.1,3.6c2.7,0.2,4.5,1.2,5.3,2.9c0.8,1.7,1.2,3.8,1.2,6.2c0,1.7-0.2,3.3-0.5,4.7
		c-0.3,1.4-0.6,2.6-0.8,3.4c-0.7,2.3-1.9,4.4-3.8,6.3c-1.9,1.9-4,3.5-6.4,4.9c-2.4,1.4-4.9,2.4-7.5,3.2c-2.6,0.8-4.9,1.1-6.9,1.1
		c-2.5,0-4.4-0.4-5.8-1.3c-1.4-0.9-3.1-2.7-5.2-5.6c-1.2-1.6-1.9-2.9-2-3.8c-0.2-0.9-0.2-1.7-0.2-2.4c0-1.2,0.1-2.3,0.2-3.2
		C755.8,68.1,756,67.2,756.2,66.3z"/>
	<path id="XMLID_67_" class="st1" d="M848.5,41.2c0.5-4.4,1.4-8.4,2.6-12.1c1.2-3.7,2.8-6.8,4.8-9.2c2-2.5,4.6-3.7,7.8-3.7
		c1.7,0,3.7,0.3,5.8,1c2.1,0.7,4.1,1.6,6.1,2.7c1.9,1.1,3.5,2.5,4.8,4.2c1.3,1.6,2,3.4,2,5.4c0,0.9-0.2,1.9-0.5,3s-0.6,2.3-0.8,3.4
		l-40.9,164c-1.6,6.5-3,12.8-4.1,18.7c-1.1,5.9-1.9,10.8-2.5,14.6v3.9c0,3.3-0.2,6.8-0.7,10.7c-0.4,3.9-1.3,7.5-2.5,10.8
		c-1.2,3.3-2.9,6.1-5,8.3c-2.1,2.2-4.9,3.4-8.3,3.4c-2.9,0-5.5-0.6-7.7-1.9c-2.2-1.3-4-2.9-5.4-4.8c-1.4-2-2.5-4.1-3.1-6.3
		c-0.7-2.2-1-4.3-1-6.3c0-1.7,0.2-3.9,0.5-6.5c0.3-2.6,0.7-5.2,1.2-8c0.5-2.8,1-5.6,1.6-8.3c0.5-2.8,1.1-5.2,1.6-7.3l42.2-167.6
		C847.5,49.6,848,45.6,848.5,41.2z"/>
</g>
</svg>
