<?xml version="1.0" encoding="utf-8"?>
<!-- Generator: Adobe Illustrator 19.0.0, SVG Export Plug-In . SVG Version: 6.00 Build 0)  -->
<svg version="1.1" id="Layer_1" xmlns="http://www.w3.org/2000/svg" xmlns:xlink="http://www.w3.org/1999/xlink" x="0px" y="0px"
	 viewBox="0 0 1216 1024.3" style="enable-background:new 0 0 1216 1024.3;" xml:space="preserve">
<rect id="XMLID_1_" x="605" width="6" height="29.7"/>
<rect id="XMLID_2_" x="605" y="23.7" width="85.7" height="6"/>
<rect id="XMLID_4_" x="684.8" y="23.7" width="6" height="29.7"/>
<rect id="XMLID_3_" x="647.9" y="47.3" width="42.9" height="6"/>
<rect id="XMLID_7_" x="647.9" y="47.3" width="6" height="29.7"/>
<rect id="XMLID_8_" x="594" y="71.2" width="6" height="29.7"/>
<rect id="XMLID_10_" x="630.6" y="94.8" width="6" height="29.7"/>
<rect id="XMLID_12_" x="569.8" y="118.5" width="6" height="29.7"/>
<rect id="XMLID_14_" x="612" y="142.2" width="6" height="29.7"/>
<rect id="XMLID_16_" x="654.1" y="165.8" width="6" height="29.7"/>
<rect id="XMLID_18_" x="597.6" y="189.5" width="6" height="29.7"/>
<rect id="XMLID_20_" x="530.5" y="213.2" width="6" height="29.7"/>
<rect id="XMLID_6_" x="594" y="71.1" width="59.9" height="6"/>
<rect id="XMLID_9_" x="594" y="94.8" width="42.6" height="6"/>
<rect id="XMLID_11_" x="569.8" y="118.5" width="66.7" height="6"/>
<rect id="XMLID_13_" x="569.9" y="142.2" width="48.1" height="6"/>
<rect id="XMLID_15_" x="612" y="165.8" width="48.1" height="6"/>
<rect id="XMLID_17_" x="597.6" y="189.5" width="62.6" height="6"/>
<rect id="XMLID_19_" x="530.5" y="213.2" width="73.1" height="6"/>
<rect id="XMLID_21_" x="530.5" y="236.8" width="93" height="6"/>
<rect id="XMLID_40_" x="617.5" y="236.8" width="6" height="29.7"/>
<rect id="XMLID_39_" x="617.5" y="260.5" width="85.7" height="6"/>
<rect id="XMLID_38_" x="697.3" y="260.5" width="6" height="29.7"/>
<rect id="XMLID_37_" x="660.4" y="284.2" width="42.9" height="6"/>
<rect id="XMLID_36_" x="660.4" y="284.2" width="6" height="29.7"/>
<rect id="XMLID_35_" x="606.5" y="308" width="6" height="29.7"/>
<rect id="XMLID_34_" x="643.1" y="331.7" width="6" height="29.7"/>
<rect id="XMLID_33_" x="582.3" y="355.3" width="6" height="29.7"/>
<rect id="XMLID_22_" x="543" y="450" width="6" height="29.7"/>
<rect id="XMLID_32_" x="624.5" y="379" width="6" height="29.7"/>
<rect id="XMLID_31_" x="666.6" y="402.7" width="6" height="29.7"/>
<rect id="XMLID_30_" x="610.1" y="426.3" width="6" height="29.7"/>
<rect id="XMLID_29_" x="606.5" y="307.9" width="59.9" height="6"/>
<rect id="XMLID_28_" x="606.5" y="331.7" width="42.6" height="6"/>
<rect id="XMLID_27_" x="582.3" y="355.3" width="66.7" height="6"/>
<rect id="XMLID_26_" x="582.4" y="379" width="48.1" height="6"/>
<rect id="XMLID_25_" x="624.5" y="402.7" width="48.1" height="6"/>
<rect id="XMLID_24_" x="610.1" y="426.3" width="62.6" height="6"/>
<rect id="XMLID_23_" x="543" y="450" width="73.1" height="6"/>
<rect id="XMLID_41_" x="543" y="473.7" width="73.1" height="6"/>
<rect id="XMLID_79_" x="610.1" y="473.7" width="6" height="29.7"/>
<rect id="XMLID_78_" x="610.1" y="497.3" width="85.7" height="6"/>
<rect id="XMLID_77_" x="689.8" y="497.3" width="6" height="29.7"/>
<rect id="XMLID_76_" x="653" y="521" width="42.9" height="6"/>
<rect id="XMLID_75_" x="653" y="521" width="6" height="29.7"/>
<rect id="XMLID_74_" x="599.1" y="544.8" width="6" height="29.7"/>
<rect id="XMLID_73_" x="635.7" y="568.5" width="6" height="29.7"/>
<rect id="XMLID_72_" x="574.8" y="592.2" width="6" height="29.7"/>
<rect id="XMLID_71_" x="617.1" y="615.8" width="6" height="29.7"/>
<rect id="XMLID_70_" x="659.2" y="639.5" width="6" height="29.7"/>
<rect id="XMLID_69_" x="602.6" y="663.2" width="6" height="29.7"/>
<rect id="XMLID_80_" x="535.6" y="686.8" width="6" height="29.7"/>
<rect id="XMLID_68_" x="599.1" y="544.8" width="59.9" height="6"/>
<rect id="XMLID_67_" x="599.1" y="568.5" width="42.6" height="6"/>
<rect id="XMLID_66_" x="574.8" y="592.2" width="66.7" height="6"/>
<rect id="XMLID_65_" x="575" y="615.8" width="48.1" height="6"/>
<rect id="XMLID_64_" x="617.1" y="639.5" width="48.1" height="6"/>
<rect id="XMLID_63_" x="602.6" y="663.2" width="62.6" height="6"/>
<rect id="XMLID_62_" x="535.6" y="686.8" width="73.1" height="6"/>
<rect id="XMLID_61_" x="535.6" y="710.5" width="93" height="6"/>
<rect id="XMLID_60_" x="622.6" y="710.5" width="6" height="29.7"/>
<rect id="XMLID_59_" x="622.6" y="734.2" width="85.7" height="6"/>
<rect id="XMLID_58_" x="702.3" y="734.2" width="6" height="29.7"/>
<rect id="XMLID_57_" x="665.5" y="757.8" width="42.9" height="6"/>
<rect id="XMLID_56_" x="665.5" y="757.8" width="6" height="29.7"/>
<rect id="XMLID_55_" x="611.6" y="781.7" width="6" height="29.7"/>
<rect id="XMLID_54_" x="648.2" y="805.3" width="6" height="29.7"/>
<rect id="XMLID_53_" x="587.3" y="829" width="6" height="29.7"/>
<rect id="XMLID_52_" x="629.6" y="852.7" width="6" height="29.7"/>
<rect id="XMLID_51_" x="671.7" y="876.3" width="6" height="29.7"/>
<rect id="XMLID_50_" x="615.1" y="900" width="6" height="29.7"/>
<rect id="XMLID_82_" x="615.1" y="947.3" width="6" height="29.7"/>
<rect id="XMLID_86_" x="571.4" y="994.7" width="6" height="29.7"/>
<rect id="XMLID_81_" x="548.1" y="923.7" width="6" height="29.7"/>
<rect id="XMLID_84_" x="517.5" y="971" width="6" height="29.7"/>
<rect id="XMLID_49_" x="611.6" y="781.6" width="59.9" height="6"/>
<rect id="XMLID_48_" x="611.6" y="805.3" width="42.6" height="6"/>
<rect id="XMLID_47_" x="587.3" y="829" width="66.7" height="6"/>
<rect id="XMLID_46_" x="587.5" y="852.7" width="48.1" height="6"/>
<rect id="XMLID_45_" x="629.6" y="876.3" width="48.1" height="6"/>
<rect id="XMLID_44_" x="615.1" y="900" width="62.6" height="6"/>
<rect id="XMLID_43_" x="548.1" y="923.7" width="73.1" height="6"/>
<rect id="XMLID_42_" x="548.1" y="947.3" width="73.1" height="6"/>
<rect id="XMLID_83_" x="517.5" y="971" width="103.6" height="6"/>
<rect id="XMLID_85_" x="517.5" y="994.7" width="59.9" height="6"/>
</svg>
